<mxfile host="app.diagrams.net" modified="2024-03-17T06:58:40.304Z" agent="Mozilla/5.0 (Macintosh; Intel Mac OS X 10.15; rv:123.0) Gecko/20100101 Firefox/123.0" etag="V88FVQtaUfH8ee-Adt2N" version="24.0.7" type="github">
  <diagram name="Page-1" id="zH526Fm0Hkvuw_LL7cF2">
    <mxGraphModel dx="1242" dy="735" grid="1" gridSize="10" guides="1" tooltips="1" connect="1" arrows="1" fold="1" page="1" pageScale="1" pageWidth="850" pageHeight="1100" math="0" shadow="0">
      <root>
        <mxCell id="0" />
        <mxCell id="1" parent="0" />
        <mxCell id="74V8q_2vPqk7TNxPhi1x-1" value="URL" style="swimlane;childLayout=stackLayout;horizontal=1;startSize=50;horizontalStack=0;rounded=1;fontSize=14;fontStyle=0;strokeWidth=2;resizeParent=0;resizeLast=1;shadow=0;dashed=0;align=center;arcSize=4;whiteSpace=wrap;html=1;" vertex="1" parent="1">
          <mxGeometry x="240" y="200" width="160" height="120" as="geometry" />
        </mxCell>
        <mxCell id="74V8q_2vPqk7TNxPhi1x-2" value="+ id (PK)&lt;br&gt;+ longURL&lt;br&gt;+ shortURL" style="align=left;strokeColor=none;fillColor=none;spacingLeft=4;fontSize=12;verticalAlign=top;resizable=0;rotatable=0;part=1;html=1;" vertex="1" parent="74V8q_2vPqk7TNxPhi1x-1">
          <mxGeometry y="50" width="160" height="70" as="geometry" />
        </mxCell>
      </root>
    </mxGraphModel>
  </diagram>
</mxfile>
